<?xml version="1.0" standalone="no"?>
<!DOCTYPE svg PUBLIC "-//W3C//DTD SVG 20010904//EN"
 "http://www.w3.org/TR/2001/REC-SVG-20010904/DTD/svg10.dtd">
<svg version="1.0" xmlns="http://www.w3.org/2000/svg"
 width="500.000000pt" height="500.000000pt" viewBox="0 0 500.000000 500.000000"
 preserveAspectRatio="xMidYMid meet">

<g transform="translate(0.000000,500.000000) scale(0.100000,-0.100000)"
fill="#000000" stroke="none">
<path d="M0 2500 l0 -2500 2500 0 2500 0 0 2500 0 2500 -2500 0 -2500 0 0
-2500z m2644 2100 c272 -26 551 -114 800 -252 517 -287 893 -801 1011 -1380
166 -817 -169 -1642 -855 -2107 -145 -98 -220 -139 -353 -195 -472 -198 -982
-217 -1461 -55 -832 281 -1394 1065 -1396 1949 -1 751 422 1453 1091 1809 357
189 759 269 1163 231z"/>
<path d="M2241 4439 c-464 -52 -895 -275 -1210 -624 -110 -123 -194 -246 -275
-405 -199 -392 -254 -803 -165 -1243 55 -272 199 -578 376 -797 24 -30 88 -99
141 -154 464 -471 1152 -660 1807 -495 605 152 1113 620 1318 1215 136 392
139 815 8 1213 -216 658 -788 1153 -1471 1272 -134 23 -402 33 -529 18z m559
-134 c344 -72 632 -223 884 -464 291 -279 487 -671 536 -1071 13 -108 13 -321
0 -430 -15 -120 -65 -318 -111 -435 -235 -602 -789 -1038 -1422 -1120 -581
-75 -1133 119 -1537 542 -232 242 -393 554 -462 895 -20 97 -23 144 -23 333 0
248 16 354 81 553 208 637 774 1118 1424 1211 41 6 86 13 100 15 14 3 111 3
215 1 157 -3 212 -8 315 -30z"/>
<path d="M1280 3236 l0 -326 143 0 c211 0 301 30 360 118 38 59 51 111 52 207
0 153 -50 248 -157 296 -48 21 -70 24 -225 27 l-173 4 0 -326z m317 203 c41
-15 81 -57 94 -98 7 -20 12 -69 12 -108 -1 -149 -66 -213 -215 -213 l-78 0 0
215 0 215 79 0 c44 0 92 -5 108 -11z"/>
<path d="M2108 3513 c-9 -26 -59 -173 -112 -326 l-96 -278 67 3 66 3 25 73 24
73 126 -3 125 -3 25 -72 24 -73 64 0 c45 0 64 4 63 13 0 6 -49 152 -108 322
l-108 310 -84 3 -85 3 -16 -48z m145 -214 c21 -64 37 -119 37 -123 0 -3 -38
-6 -85 -6 -47 0 -85 3 -85 7 0 24 83 253 89 246 4 -4 24 -60 44 -124z"/>
<path d="M2542 3508 l3 -53 93 -3 92 -3 0 -269 0 -270 65 0 65 0 0 270 0 269
93 3 92 3 3 53 3 52 -256 0 -256 0 3 -52z"/>
<path d="M3300 3557 c0 -2 -49 -146 -110 -321 -60 -175 -110 -320 -110 -322 0
-2 29 -4 64 -4 l64 0 24 73 25 72 125 3 126 3 24 -73 25 -73 66 -3 c37 -2 67
0 67 3 0 5 -200 587 -215 628 -6 14 -20 17 -91 17 -46 0 -84 -1 -84 -3z m123
-234 c19 -60 38 -118 42 -130 6 -23 5 -23 -79 -23 -47 0 -86 3 -86 6 0 8 59
199 71 232 5 12 11 22 13 22 3 0 20 -48 39 -107z"/>
<path d="M1038 2290 c-119 -36 -174 -162 -115 -265 29 -50 78 -78 190 -106
106 -26 131 -43 131 -92 0 -47 -26 -75 -78 -82 -61 -10 -121 10 -171 56 l-43
40 -38 -46 -37 -46 33 -34 c98 -101 322 -113 414 -21 61 62 71 171 21 247 -28
44 -82 70 -190 94 -107 23 -125 35 -125 85 0 34 4 42 32 56 46 24 135 15 186
-18 l40 -27 33 46 32 46 -29 24 c-56 46 -204 68 -286 43z"/>
<path d="M3656 2285 c-87 -31 -126 -84 -126 -173 0 -104 47 -149 198 -188 112
-30 142 -50 142 -95 0 -43 -15 -65 -51 -78 -66 -23 -134 -5 -194 50 l-43 40
-36 -42 c-20 -24 -36 -45 -36 -48 0 -3 8 -15 18 -27 89 -108 330 -126 419 -32
45 48 54 72 54 138 1 115 -59 172 -216 204 -90 19 -122 36 -131 70 -23 92 137
119 242 41 19 -14 22 -12 53 32 l33 47 -28 23 c-61 50 -212 69 -298 38z"/>
<path d="M1500 1965 l0 -325 65 0 65 0 0 119 0 118 98 6 c172 9 242 70 242
210 0 79 -32 134 -99 169 -52 27 -58 28 -212 28 l-159 0 0 -325z m293 214 c52
-24 65 -122 22 -164 -22 -22 -32 -25 -105 -25 l-80 0 0 100 0 100 70 0 c38 0
80 -5 93 -11z"/>
<path d="M2090 1965 l0 -325 65 0 65 0 0 325 0 325 -65 0 -65 0 0 -325z"/>
<path d="M2390 1965 l0 -325 65 0 65 0 0 135 0 135 60 0 c83 0 99 -18 143
-156 l34 -109 68 -3 c52 -2 66 0 63 10 -3 7 -22 65 -43 128 -29 86 -46 123
-70 147 l-33 33 43 24 c56 33 79 81 73 153 -6 66 -29 100 -88 131 -41 20 -58
22 -212 22 l-168 0 0 -325z m314 204 c22 -17 26 -28 26 -69 0 -68 -26 -85
-130 -85 l-75 0 -3 88 -3 87 79 0 c65 0 84 -4 106 -21z"/>
<path d="M3000 1965 l0 -325 226 0 225 0 -3 53 -3 52 -158 3 -158 3 3 87 3 87
133 3 132 3 0 49 0 49 -132 3 -133 3 -3 72 -3 72 153 3 153 3 3 53 3 52 -220
0 -221 0 0 -325z"/>
</g>
</svg>
